<svg width="29" height="32" viewBox="0 0 29 32" fill="none" xmlns="http://www.w3.org/2000/svg">
<path d="M28.6963 13.446C25.8866 13.5085 23.2642 12.6343 21.0164 11.0109V22.1874C21.0164 26.4332 18.394 30.1795 14.398 31.678C10.4643 33.1765 5.96879 32.0526 3.2215 28.8683C0.411781 25.6215 -0.0877253 21.0635 1.9103 17.3172C3.90833 13.6333 8.02925 11.5729 12.2751 12.1348V17.7543C10.3395 17.1299 8.21657 17.8167 7.03024 19.4401C5.90635 21.1259 5.90635 23.3113 7.09268 24.9347C8.27901 26.5581 10.4019 27.2449 12.2751 26.6205C14.2106 25.9961 15.5219 24.1854 15.5219 22.1874V0.333984H21.0164C21.0164 0.833491 21.0164 1.27056 21.1413 1.77007C21.5159 3.83053 22.7023 5.64124 24.513 6.76513C25.6993 7.57683 27.1978 8.0139 28.6963 8.0139V13.446Z" fill="white"/>
</svg>
